<svg xmlns="http://www.w3.org/2000/svg" width="1200" height="200" viewBox="0 0 1200 200">
  <defs>
    <linearGradient id="curva" x1="0" y1="0" x2="0" y2="1">
      <stop offset="0%" stop-color="#C9A7FF"/>
      <stop offset="100%" stop-color="#7B2FBE"/>
    </linearGradient>
    <linearGradient id="curvaFundo" x1="0" y1="0" x2="0" y2="1">
      <stop offset="0%" stop-color="#7B2FBE" stop-opacity="0.35"/>
      <stop offset="100%" stop-color="#5A336C" stop-opacity="0.12"/>
    </linearGradient>
    <linearGradient id="lgLogo" x1="0" y1="0" x2="0" y2="1">
      <stop offset="0%" stop-color="#A76EBA"/>
      <stop offset="100%" stop-color="#5A336C"/>
    </linearGradient>
  </defs>
  <rect width="1200" height="200" fill="#1A1524"/>
  <path d="M120,200 C300,40 480,10 600,92 C720,10 900,40 1080,200 Z" fill="url(#curvaFundo)"/>
  <path d="M120,200 C300,40 480,10 600,92 C720,10 900,40 1080,200" fill="none" stroke="url(#curva)" stroke-width="3"/>
  <circle cx="600" cy="92" r="5" fill="#C9A7FF"/>
  <g font-family="Inter,-apple-system,sans-serif" font-size="15" font-weight="600">
    <rect x="48" y="40" rx="14" width="76" height="28" fill="#2A2338" stroke="#C9A7FF" stroke-opacity="0.4"/>
    <text x="86" y="59" text-anchor="middle" fill="#C9A7FF">MIT</text>
    <rect x="132" y="40" rx="14" width="132" height="28" fill="#2A2338" stroke="#C9A7FF" stroke-opacity="0.4"/>
    <text x="198" y="59" text-anchor="middle" fill="#E9E3F5">Claude Code</text>
    <rect x="272" y="40" rx="14" width="110" height="28" fill="#2A2338" stroke="#C9A7FF" stroke-opacity="0.4"/>
    <text x="327" y="59" text-anchor="middle" fill="#E9E3F5">Codex</text>
    <rect x="390" y="40" rx="14" width="230" height="28" fill="#2A2338" stroke="#D5A62E" stroke-opacity="0.5"/>
    <text x="505" y="59" text-anchor="middle" fill="#D5A62E">Anthropic Partner</text>
  </g>
  <!-- logo CF Gauss — vetorizada do original -->
  <g transform="translate(1096,108) scale(0.04,-0.04)" fill="url(#lgLogo)">
<path d="M924 1454 c-52 -33 -106 -108 -159 -219 -24 -49 -72 -151 -108 -226
-96 -202 -170 -303 -268 -365 -61 -38 -173 -74 -256 -81 -72 -6 -103 -16 -90
-29 4 -4 91 -7 194 -7 355 1 439 46 636 345 52 80 112 162 133 183 75 73 171
95 249 55 21 -11 40 -18 42 -16 7 7 -89 201 -133 267 -75 114 -158 146 -240
93z"/>
<path d="M1105 1071 c-57 -27 -111 -88 -208 -236 -47 -71 -96 -143 -109 -160
-15 -20 -3 -13 40 23 34 30 62 58 62 63 0 17 109 90 143 96 53 8 102 -25 194
-131 146 -167 222 -195 531 -195 122 -1 202 3 202 9 0 9 -24 14 -116 25 -66 7
-179 45 -230 78 -55 34 -123 105 -164 171 -111 178 -136 211 -182 239 -60 37
-111 43 -163 18z"/>
  </g>
</svg>
